<svg xmlns="http://www.w3.org/2000/svg" width="90" viewBox="0 0 600 500" style="height:auto!important"><circle cx="274" cy="242.65" r="212.81" fill="#fff"/><path d="M520 242.65c0 14.22-13.15 27.11-15.52 40.65-2.44 13.92 5.47 30.52.74 43.51-4.81 13.22-21.58 20.84-28.54 32.85-7.02 12.13-5.28 30.45-14.24 41.12-8.99 10.7-27.34 12.15-38.04 21.13-10.67 8.96-15.26 26.8-27.39 33.81-12.02 6.95-29.75 2.06-42.97 6.87-12.99 4.73-23.41 19.91-37.33 22.35s-28.5-8.3-42.72-8.3-29.18 10.67-42.72 8.3c-13.92-2.44-24.35-17.62-37.33-22.35-13.22-4.81-30.95.08-42.97-6.87-12.13-7.02-16.72-24.85-27.39-33.81-10.7-8.99-29.05-10.43-38.04-21.13-8.96-10.67-7.22-28.99-14.24-41.12-6.95-12.02-23.72-19.63-28.54-32.85-4.73-12.99 3.18-29.58.74-43.51-2.37-13.54-15.52-26.43-15.52-40.65S41.13 215.54 43.5 202c2.44-13.92-5.47-30.52-.74-43.51 4.81-13.22 21.58-20.84 28.54-32.85 7.02-12.13 5.28-30.45 14.24-41.12 8.99-10.7 27.34-12.15 38.04-21.13 10.67-8.96 15.26-26.8 27.39-33.81 12.02-6.95 29.75-2.06 42.97-6.87C206.93 17.98 217.35 2.8 231.27.36c13.54-2.37 28.5 8.3 42.72 8.3S303.18-2.03 316.72.34c13.92 2.44 24.35 17.62 37.33 22.35 13.22 4.81 30.95-.08 42.97 6.87 12.13 7.02 16.72 24.85 27.39 33.81 10.7 8.99 29.05 10.43 38.04 21.13 8.96 10.67 7.22 28.99 14.24 41.12 6.95 12.02 23.72 19.63 28.54 32.85 4.73 12.99-3.18 29.58-.74 43.51 2.37 13.54 15.52 26.43 15.52 40.65Z" fill="#494949"/><circle cx="274" cy="242.65" r="212.81" fill="#fff"/><circle cx="274" cy="242.65" r="206.33" fill="#fff"/><path d="M274.12 433.82h-.18c-4.97-.2-9.96-.54-14.82-1.02-.77-.08-1.35-.71-1.35-1.48v-.16c.08-.82.79-1.43 1.64-1.34 4.8.47 9.72.8 14.65 1h.06c.82 0 1.49.67 1.49 1.49 0 .41-.15.78-.43 1.07-.28.28-.66.44-1.06.44Zm14.87-.59c-.78 0-1.43-.6-1.49-1.38v-.12c0-.78.61-1.43 1.39-1.49 4.91-.39 9.84-.97 14.67-1.73.8-.13 1.58.44 1.71 1.25.06.39-.03.79-.27 1.11-.23.33-.58.54-.98.6-4.89.78-9.9 1.37-14.9 1.76H289Zm-44.48-2.33h-.24c-5-.81-9.95-1.78-14.71-2.88-.68-.16-1.16-.76-1.16-1.46 0-.12 0-.23.04-.34.18-.79.99-1.31 1.8-1.12 4.75 1.09 9.63 2.05 14.5 2.83.4.07.75.28.98.61.24.32.33.72.27 1.11-.12.73-.74 1.26-1.48 1.26Zm73.87-2.3a1.515 1.515 0 0 1-1.5-1.49c0-.71.47-1.31 1.15-1.47 4.78-1.15 9.56-2.5 14.22-4.01.78-.26 1.64.19 1.89.96.12.38.09.79-.09 1.15-.19.35-.5.62-.88.74-4.74 1.54-9.6 2.91-14.44 4.07-.11.03-.23.05-.35.05Zm-102.85-4.41c-.15 0-.3-.02-.44-.06-4.79-1.47-9.55-3.12-14.17-4.93-.58-.23-.95-.77-.95-1.39 0-.19.03-.38.1-.55a1.51 1.51 0 0 1 1.94-.85c4.51 1.76 9.21 3.39 13.95 4.85.79.24 1.24 1.08 1 1.87-.2.64-.77 1.06-1.43 1.06Zm131.14-4.79c-.61 0-1.16-.36-1.39-.93-.08-.18-.12-.38-.12-.58 0-.6.37-1.14.93-1.38 4.51-1.87 9.02-3.95 13.39-6.19h.02c.71-.37 1.64-.06 2 .66.19.35.22.76.1 1.14a1.5 1.5 0 0 1-.75.87c-4.42 2.26-9 4.38-13.61 6.3-.18.07-.38.11-.57.11Zm-158.84-6.05c-.23 0-.45-.05-.65-.15-4.48-2.16-8.91-4.53-13.18-7.05-.03 0-.04-.02-.06-.03a1.52 1.52 0 0 1-.52-2.05c.41-.68 1.37-.94 2.06-.53 4.18 2.46 8.56 4.8 13.01 6.96.75.36 1.06 1.26.7 2-.25.52-.78.85-1.35.85Zm185.32-7.48c-.53 0-1.01-.27-1.29-.71-.14-.24-.22-.51-.22-.78 0-.52.26-1 .71-1.28v-.01s.03-.02.05-.03c4.14-2.54 8.25-5.29 12.22-8.18.65-.47 1.63-.32 2.09.33.24.32.34.72.27 1.11-.06.4-.27.75-.6.98-4.04 2.95-8.23 5.75-12.46 8.35-.24.15-.51.22-.78.22Zm-210.95-7.61c-.31 0-.61-.1-.86-.28a178.49 178.49 0 0 1-11.88-9.17 1.51 1.51 0 0 1-.54-1.17c.01-.34.13-.68.36-.95.51-.6 1.49-.69 2.1-.18h.01l.02.02c3.73 3.14 7.65 6.17 11.66 9 .33.23.55.58.61.97a1.503 1.503 0 0 1-1.48 1.76Zm235-9.9c-.44 0-.86-.19-1.14-.53-.24-.27-.37-.62-.36-.98 0-.43.19-.83.51-1.12 0 0 .01 0 .01-.01.02 0 .04-.03.06-.04 3.72-3.19 7.35-6.55 10.79-9.99.56-.56 1.55-.56 2.12 0a1.499 1.499 0 0 1 0 2.12c-3.53 3.53-7.23 6.95-11.02 10.19-.27.23-.62.36-.97.36Zm-257.74-9.26c-.41 0-.78-.16-1.07-.44-3.51-3.51-6.93-7.23-10.16-11.05a1.503 1.503 0 0 1 .18-2.11c.61-.52 1.6-.43 2.11.17 3.18 3.76 6.54 7.42 10 10.87.58.6.58 1.54 0 2.12-.29.28-.66.44-1.06.44Zm278.78-11.78c-.36 0-.71-.13-.98-.36a1.51 1.51 0 0 1-.16-2.12c3.19-3.73 6.27-7.63 9.15-11.59.47-.65 1.45-.81 2.1-.34.32.24.53.59.59.98.07.4-.03.79-.26 1.12-2.92 4.01-6.05 7.97-9.3 11.78-.29.34-.7.53-1.14.53Zm-297.99-10.95c-.48 0-.94-.24-1.22-.63-2.87-4.04-5.63-8.28-8.19-12.6-.14-.23-.21-.5-.21-.78.01-.53.28-1 .74-1.27.68-.41 1.65-.16 2.05.52 2.52 4.24 5.23 8.41 8.05 12.39.24.33.33.72.26 1.12-.07.39-.28.74-.61.97-.26.18-.56.28-.87.28Zm315.5-13.12c-.28 0-.55-.08-.79-.22a1.5 1.5 0 0 1-.71-1.29c0-.27.07-.54.22-.77s.02-.04.03-.06c2.56-4.16 4.98-8.48 7.2-12.83.37-.72 1.3-1.03 2.02-.66a1.49 1.49 0 0 1 .65 2.02c-2.26 4.44-4.74 8.85-7.34 13.09-.28.45-.76.72-1.28.72Zm-330.69-12.48c-.58 0-1.09-.32-1.35-.84a192.38 192.38 0 0 1-6.05-13.74c-.07-.17-.1-.36-.1-.55 0-.62.37-1.17.95-1.39.75-.3 1.64.09 1.94.84 1.82 4.6 3.82 9.15 5.96 13.52.18.36.2.77.07 1.15a1.498 1.498 0 0 1-1.42 1.01Zm344.22-14.04c-.19 0-.39-.04-.57-.12-.56-.23-.92-.77-.93-1.37 0-.2.04-.4.12-.59 1.87-4.52 3.6-9.19 5.11-13.86v-.02c.25-.76 1.12-1.2 1.88-.95.79.26 1.22 1.1.97 1.89-1.54 4.73-3.29 9.47-5.2 14.09-.23.56-.78.93-1.39.93ZM94.13 303.09c-.66 0-1.24-.43-1.43-1.06-1.46-4.75-2.76-9.63-3.87-14.5-.02-.11-.03-.23-.03-.34 0-.7.48-1.3 1.17-1.46.78-.18 1.61.35 1.79 1.14 1.09 4.82 2.37 9.62 3.81 14.28.11.38.08.79-.11 1.14-.19.35-.5.61-.89.73-.14.04-.29.07-.44.07Zm364.34-14.68c-.11 0-.23-.01-.35-.04a1.51 1.51 0 0 1-1.15-1.47c0-.11.02-.22.04-.33 1.15-4.79 2.11-9.66 2.87-14.49.12-.81.9-1.38 1.71-1.25.82.13 1.38.9 1.25 1.71-.77 4.92-1.75 9.87-2.91 14.72-.16.68-.76 1.15-1.46 1.15ZM87.55 274.06c-.74 0-1.37-.55-1.48-1.28-.74-4.92-1.3-9.93-1.67-14.91v-.12c0-.78.61-1.43 1.39-1.49.81-.06 1.53.56 1.6 1.37v.11c.37 4.88.92 9.8 1.63 14.6.13.82-.44 1.58-1.26 1.7-.07 0-.15.02-.22.02Zm375.54-15.04h-.12c-.77-.06-1.38-.72-1.38-1.5v-.11c.38-4.9.58-9.86.58-14.76v-.48c0-.83.68-1.51 1.5-1.51s1.5.67 1.51 1.5v.5c0 4.97-.2 9.99-.58 14.9v.09h-.01a1.5 1.5 0 0 1-1.49 1.37ZM85.34 244.38c-.83 0-1.51-.68-1.51-1.51v-.24c0-4.88.18-9.85.53-14.75.06-.82.78-1.45 1.61-1.39.78.06 1.39.71 1.39 1.49v.12c-.35 4.81-.53 9.7-.53 14.53v.24c0 .83-.67 1.5-1.49 1.51Zm377.71-15.61a1.5 1.5 0 0 1-1.49-1.37v-.02c-.38-4.86-.97-9.79-1.75-14.64-.13-.82.43-1.59 1.25-1.72.82-.13 1.58.44 1.71 1.25.79 4.92 1.39 9.93 1.79 14.89v.12c0 .78-.6 1.44-1.38 1.5h-.12ZM87.48 214.68c-.07 0-.14 0-.22-.01a1.51 1.51 0 0 1-.98-.59c-.24-.32-.34-.72-.28-1.11.72-4.95 1.64-9.91 2.73-14.76.18-.8.99-1.31 1.79-1.13.69.15 1.17.75 1.17 1.45 0 .11 0 .22-.03.34-1.07 4.78-1.98 9.67-2.69 14.53-.11.73-.75 1.28-1.49 1.28Zm370.87-15.28c-.69 0-1.29-.47-1.45-1.15-1.15-4.75-2.51-9.53-4.04-14.21-.12-.38-.09-.79.09-1.14.18-.36.49-.63.87-.75.77-.25 1.64.19 1.89.96 1.55 4.73 2.93 9.59 4.1 14.43.03.11.04.23.04.34 0 .71-.46 1.31-1.14 1.47-.12.03-.24.05-.36.05ZM94 185.64c-.15 0-.3-.02-.44-.06a1.513 1.513 0 0 1-1-1.88c1.46-4.78 3.12-9.55 4.93-14.17.29-.75 1.19-1.15 1.95-.85.57.23.95.77.95 1.39 0 .19-.04.38-.11.55-1.77 4.53-3.4 9.23-4.85 13.96-.19.64-.77 1.06-1.43 1.06Zm355.1-14.5c-.6 0-1.15-.37-1.38-.93-1.89-4.52-3.98-9.02-6.22-13.38-.19-.36-.22-.77-.1-1.15.13-.38.39-.69.75-.87.72-.37 1.65-.07 2.02.64 2.28 4.44 4.4 9.02 6.32 13.61.07.18.11.38.11.58 0 .61-.36 1.15-.92 1.38-.18.08-.38.12-.58.12Zm-344.24-13.2c-.23 0-.45-.05-.66-.15a1.512 1.512 0 0 1-.69-2.01c2.18-4.49 4.57-8.94 7.09-13.22.41-.69 1.37-.94 2.06-.53.46.27.74.77.73 1.31 0 .26-.07.52-.2.74-2.48 4.2-4.83 8.58-6.98 13.01-.25.53-.77.85-1.34.85Zm330.66-13.26c-.52 0-.99-.26-1.27-.7v-.01c0-.03-.03-.05-.04-.07-2.56-4.15-5.32-8.25-8.19-12.18h-.01c-.24-.32-.33-.72-.27-1.12.06-.39.27-.74.6-.97.64-.47 1.62-.32 2.09.32 2.92 3.99 5.72 8.16 8.33 12.39.02.02.03.04.05.06v.02c.14.23.22.49.22.76a1.5 1.5 0 0 1-.71 1.29c-.24.14-.51.22-.79.22Zm-315.55-12.36c-.31 0-.61-.09-.87-.27-.67-.48-.83-1.42-.35-2.09 2.88-4.09 5.96-8.08 9.15-11.88.52-.62 1.51-.7 2.12-.19a1.513 1.513 0 0 1 .18 2.12c-3.14 3.73-6.16 7.66-9 11.68-.28.4-.74.63-1.23.63Zm297.99-11.66c-.44 0-.85-.19-1.14-.52-3.19-3.72-6.57-7.36-10.05-10.82-.28-.29-.44-.66-.44-1.06s.15-.78.44-1.07c.57-.56 1.55-.57 2.12 0 3.52 3.5 6.95 7.2 10.21 10.99.24.28.37.63.36.99a1.49 1.49 0 0 1-1.5 1.49ZM139.1 109.55a1.49 1.49 0 0 1-1.5-1.49c0-.4.15-.78.44-1.06 3.52-3.55 7.23-6.97 11.03-10.18.61-.52 1.6-.44 2.11.17.24.28.36.63.36.99 0 .43-.2.84-.53 1.13-3.76 3.18-7.41 6.54-10.85 10-.28.29-.66.44-1.06.44Zm257.78-9.89c-.35 0-.69-.12-.96-.34h-.02l-.05-.05c-3.73-3.17-7.62-6.23-11.56-9.08-.32-.25-.53-.59-.59-.98-.07-.4.03-.8.26-1.12.47-.64 1.45-.8 2.1-.33 4.04 2.93 8.01 6.05 11.8 9.27.33.28.52.7.53 1.13 0 .36-.13.71-.36.99-.29.33-.7.52-1.14.52Zm-235.09-9.33c-.48 0-.94-.23-1.22-.63-.23-.32-.32-.72-.26-1.12.07-.39.29-.74.61-.97 4.03-2.86 8.26-5.61 12.59-8.18.69-.41 1.65-.16 2.05.53.14.23.21.5.21.78 0 .53-.28 1-.73 1.27-4.24 2.51-8.4 5.22-12.38 8.05-.25.18-.55.27-.86.27Zm210.98-8.13c-.27 0-.54-.08-.78-.22-4.2-2.57-8.54-4.99-12.9-7.2-.74-.38-1.04-1.29-.66-2.02.37-.72 1.29-1.03 2.02-.66 4.43 2.25 8.84 4.71 13.11 7.32.45.28.72.76.71 1.29 0 .27-.07.54-.22.77-.27.45-.75.72-1.28.72Zm-185.4-7.04c-.57 0-1.09-.32-1.34-.84-.18-.36-.2-.76-.07-1.14.13-.38.4-.69.76-.86 4.44-2.17 9.06-4.2 13.73-6.04.76-.3 1.65.09 1.94.84.07.18.11.37.11.56 0 .62-.38 1.16-.95 1.39-4.58 1.81-9.13 3.8-13.51 5.94-.21.1-.43.15-.66.15Zm158.85-6.44c-.19 0-.38-.04-.56-.11s-.03-.02-.04-.02c-4.54-1.87-9.19-3.58-13.82-5.07h-.02c-.38-.12-.69-.39-.87-.75-.19-.35-.22-.76-.09-1.14.24-.77 1.1-1.22 1.88-.97 4.73 1.53 9.47 3.26 14.11 5.17.55.23.92.77.93 1.38 0 .2-.04.39-.12.58-.23.57-.78.93-1.39.93Zm-131.18-4.47c-.66 0-1.24-.42-1.43-1.06-.25-.79.2-1.63.99-1.87 4.7-1.46 9.57-2.78 14.47-3.92.8-.18 1.61.33 1.8 1.12.02.11.04.22.04.34 0 .7-.48 1.3-1.16 1.46-4.81 1.12-9.61 2.42-14.27 3.86-.14.05-.29.07-.44.07Zm102.85-4.66c-.11 0-.23-.02-.34-.04-4.79-1.14-9.66-2.09-14.5-2.84-.81-.13-1.37-.89-1.25-1.71.13-.81.89-1.38 1.71-1.25 4.91.76 9.85 1.72 14.69 2.87h.05c.68.18 1.15.78 1.14 1.47 0 .12-.01.23-.04.34-.16.68-.76 1.16-1.46 1.16ZM244 57.48c-.73 0-1.35-.53-1.47-1.26-.14-.82.42-1.59 1.23-1.73 4.83-.79 9.83-1.44 14.85-1.95.82-.08 1.56.53 1.65 1.35v.15c0 .77-.58 1.41-1.35 1.49-4.96.5-9.9 1.14-14.66 1.93-.08 0-.16.02-.25.02Zm44.49-2.45h-.11c-4.76-.35-9.6-.54-14.38-.54l-.32.02c-.87.03-1.53-.61-1.56-1.44a1.5 1.5 0 0 1 1.44-1.56c.11 0 .23-.01.34-.01h.1c4.87 0 9.78.18 14.61.54.77.06 1.38.72 1.38 1.5v.11c-.06.78-.72 1.39-1.5 1.39Z" fill="#494949"/><path d="M541.22 340.31H6.78c-5.96 0-9.01-10.95-4.89-17.55l18.12-29.02c4.07-6.52 4.05-16.81-.05-23.28L2.09 242.25c-4.17-6.58-1.13-17.61 4.86-17.61h534.27c5.97 0 9.02 10.99 4.87 17.58l-18 28.62c-4.09 6.5-4.09 16.78 0 23.28l18 28.62c4.14 6.59 1.1 17.58-4.87 17.58Z" fill="#94deff"/><path d="M.06 331.18h547.88c.13-1.51.03-3.07-.3-4.57H.36c-.33 1.5-.43 3.06-.3 4.57Zm.1-95.89c.02 1.55.28 3.11.79 4.57H547.2c.51-1.46.77-3.02.79-4.57H.16Zm111.27 21.23h12.52l9.58 58.8h-9.24l-1.68-11.68v.17h-10.5l-1.68 11.51h-8.57l9.58-58.8Zm10.08 39.31-4.12-29.06h-.17l-4.03 29.06h8.32Zm19.91 5.88v-31.58c0-9.07 4.7-14.45 13.61-14.45s13.61 5.38 13.61 14.45v6.22h-8.74v-6.8c0-3.86-1.85-5.46-4.62-5.46s-4.62 1.6-4.62 5.46v32.84c0 3.86 1.85 5.38 4.62 5.38s4.62-1.51 4.62-5.38v-8.99h8.74v8.32c0 9.07-4.7 14.45-13.61 14.45s-13.61-5.38-13.61-14.45Zm36.54 0v-31.58c0-9.07 4.7-14.45 13.61-14.45s13.61 5.38 13.61 14.45v6.22h-8.74v-6.8c0-3.86-1.85-5.46-4.62-5.46s-4.62 1.6-4.62 5.46v32.84c0 3.86 1.85 5.38 4.62 5.38s4.62-1.51 4.62-5.38v-8.99h8.74v8.32c0 9.07-4.7 14.45-13.61 14.45s-13.61-5.38-13.61-14.45Zm36.96-45.19h13.69c9.58 0 13.69 4.45 13.69 13.52v3.61c0 6.05-1.93 9.91-6.05 11.59v.17c4.62 1.43 6.13 5.8 6.13 12.43v10.33c0 2.86.08 4.96 1.01 7.14h-9.41c-.5-1.51-.84-2.44-.84-7.22v-10.75c0-5.46-1.6-7.22-5.8-7.22h-3.19v25.2h-9.24v-58.8Zm12.6 25.2c3.44 0 5.54-1.51 5.54-6.22v-4.54c0-4.2-1.43-6.05-4.71-6.05h-4.2v16.8h3.36Zm25.45-25.2h25.2v8.4h-15.96v15.54h12.68v8.4h-12.68v18.06h15.96v8.4h-25.2v-58.8Zm13.44-13.61h10.08l-8.99 9.66h-6.97l5.88-9.66Zm21.25 13.61h14.11c9.24 0 13.78 5.12 13.78 14.53v29.74c0 9.41-4.54 14.53-13.78 14.53h-14.11v-58.8Zm13.94 50.4c2.94 0 4.7-1.51 4.7-5.71v-30.58c0-4.2-1.76-5.71-4.7-5.71h-4.7v42h4.7Zm24.36-50.4h9.24v58.8h-9.24v-58.8Zm27.55 8.4h-9.66v-8.4h28.56v8.4h-9.66v50.4h-9.24v-50.4Zm27.55-8.4h25.2v8.4H390.3v15.54h12.68v8.4H390.3v18.06h15.96v8.4h-25.2v-58.8Zm13.44-13.61h10.08l-8.99 9.66h-6.97l5.88-9.66Zm21.26 13.61h25.2v8.4H425v15.54h12.68v8.4H425v18.06h15.96v8.4h-25.2v-58.8Z" fill="#fff"/><path d="M138.17 151.36h23.1v7.7h-14.63v14.24h11.63v7.7h-11.63v16.55h14.63v7.7h-23.1v-53.9Zm27.95 0h10.62l8.24 32.26h.15v-32.26h7.55v53.9h-8.7l-10.16-39.34h-.15v39.34h-7.54v-53.9Zm39.5 7.7h-8.85v-7.7h26.18v7.7h-8.85v46.2h-8.47v-46.2Zm21.41-7.7h12.55c8.78 0 12.55 4.08 12.55 12.4v3.31c0 5.54-1.77 9.08-5.54 10.62v.15c4.23 1.31 5.62 5.31 5.62 11.39v9.47c0 2.62.08 4.54.92 6.54h-8.62c-.46-1.39-.77-2.23-.77-6.62v-9.86c0-5-1.46-6.62-5.31-6.62h-2.93v23.1h-8.47v-53.9Zm11.55 23.1c3.16 0 5.08-1.39 5.08-5.7v-4.16c0-3.85-1.31-5.54-4.31-5.54h-3.85v15.4h3.08Zm19.48-23.1h23.1v7.7h-14.63v14.24h11.63v7.7h-11.63v16.55h14.63v7.7h-23.1v-53.9Zm27.95 0h12.47c8.47 0 12.63 4.7 12.63 13.32v5.31c0 8.62-4.16 13.32-12.63 13.32h-4v21.94h-8.47v-53.9Zm12.47 24.25c2.7 0 4.16-1.23 4.16-5.08v-6.39c0-3.85-1.46-5.08-4.16-5.08h-4v16.55h4Zm17.25-24.25h12.55c8.78 0 12.55 4.08 12.55 12.4v3.31c0 5.54-1.77 9.08-5.54 10.62v.15c4.23 1.31 5.62 5.31 5.62 11.39v9.47c0 2.62.08 4.54.92 6.54h-8.62c-.46-1.39-.77-2.23-.77-6.62v-9.86c0-5-1.46-6.62-5.31-6.62h-2.93v23.1h-8.47v-53.9Zm11.55 23.1c3.16 0 5.08-1.39 5.08-5.7v-4.16c0-3.85-1.31-5.54-4.31-5.54h-3.85v15.4h3.08Zm19.48-23.1h8.47v53.9h-8.47v-53.9Zm13.32 41.12v-3.08h8.01v3.7c0 3.85 1.69 5.24 4.39 5.24s4.39-1.39 4.39-5.39c0-4.47-1.69-7.31-7.24-12.17-7.08-6.24-9.39-10.63-9.39-16.79 0-8.47 4.39-13.4 12.63-13.4s12.32 4.93 12.32 13.55v2.23h-8.01v-2.77c0-3.85-1.54-5.31-4.24-5.31s-4.23 1.46-4.23 5.16c0 3.93 1.77 6.78 7.31 11.63 7.08 6.24 9.32 10.55 9.32 17.25 0 8.78-4.47 13.71-12.78 13.71s-12.47-4.93-12.47-13.55Zm30.11-41.12h23.1v7.7h-14.63v14.24h11.63v7.7h-11.63v16.55h14.63v7.7h-23.1v-53.9ZM274 73.32l5.82 11.78 13.01 1.89-9.42 9.18 2.22 12.96-11.63-6.12-11.63 6.12 2.22-12.96-9.42-9.18 13.01-1.89L274 73.32zm-42.65 17.3 3.72 7.52 8.3 1.21-6.01 5.86 1.42 8.26-7.43-3.9-7.42 3.9 1.42-8.26-6.01-5.86 8.3-1.21 3.71-7.52zm85.3 1.2 3.71 7.53 8.3 1.2-6.01 5.86 1.42 8.27-7.42-3.91-7.43 3.91 1.42-8.27-6.01-5.86 8.3-1.2 3.72-7.53zm-41.91 282.69 5.76 11.68 12.88 1.87-9.32 9.09 2.2 12.83-11.52-6.06-11.53 6.06 2.2-12.83-9.32-9.09 12.89-1.87 5.76-11.68zm-42.64-3.56 3.71 7.52 8.3 1.21-6.01 5.86 1.42 8.26-7.42-3.9-7.43 3.9 1.42-8.26-6.01-5.86 8.3-1.21 3.72-7.52zm84.87.11 3.68 7.45 8.22 1.2-5.95 5.79 1.4 8.19-7.35-3.86-7.35 3.86 1.4-8.19-5.95-5.79 8.22-1.2 3.68-7.45z" fill="#494949"/></svg>