<svg xmlns="http://www.w3.org/2000/svg" width="90" viewBox="0 0 600 500" style="height:auto!important"><circle cx="274" cy="242.65" r="212.81" fill="#fff"/><path d="M520 242.65c0 14.22-13.15 27.11-15.52 40.65-2.44 13.92 5.47 30.52.74 43.51-4.81 13.22-21.58 20.84-28.54 32.85-7.02 12.13-5.28 30.45-14.24 41.12-8.99 10.7-27.34 12.15-38.04 21.13-10.67 8.96-15.26 26.8-27.39 33.81-12.02 6.95-29.75 2.06-42.97 6.87-12.99 4.73-23.41 19.91-37.33 22.35-13.54 2.37-28.5-8.3-42.72-8.3s-29.18 10.67-42.72 8.3c-13.92-2.44-24.35-17.62-37.33-22.35-13.22-4.81-30.95.08-42.97-6.87-12.13-7.02-16.72-24.85-27.39-33.81-10.7-8.99-29.05-10.43-38.04-21.13-8.96-10.67-7.22-28.99-14.24-41.12-6.95-12.02-23.72-19.63-28.54-32.85-4.73-12.99 3.18-29.58.74-43.51-2.37-13.54-15.52-26.43-15.52-40.65S41.13 215.54 43.5 202c2.44-13.92-5.47-30.52-.74-43.51 4.81-13.22 21.58-20.84 28.54-32.85 7.02-12.13 5.28-30.45 14.24-41.12 8.99-10.7 27.34-12.15 38.04-21.13 10.67-8.96 15.26-26.8 27.39-33.81 12.02-6.95 29.75-2.06 42.97-6.87C206.93 17.98 217.35 2.8 231.27.36c13.54-2.37 28.5 8.3 42.72 8.3S303.18-2.03 316.72.34c13.92 2.44 24.35 17.62 37.33 22.35 13.22 4.81 30.95-.08 42.97 6.87 12.13 7.02 16.72 24.85 27.39 33.81 10.7 8.99 29.05 10.43 38.04 21.13 8.96 10.67 7.22 28.99 14.24 41.12 6.95 12.02 23.72 19.63 28.54 32.85 4.73 12.99-3.18 29.58-.74 43.51 2.37 13.54 15.52 26.43 15.52 40.65Z" fill="#494949"/><circle cx="274" cy="242.65" r="212.81" fill="#fff"/><circle cx="274" cy="242.65" r="206.33" fill="#fff"/><path d="M274.12 433.81h-.18c-4.99-.2-9.98-.54-14.82-1.01a1.49 1.49 0 0 1-1.35-1.49v-.15c.08-.82.77-1.43 1.64-1.35 4.8.47 9.71.81 14.58 1h.13c.82 0 1.49.68 1.49 1.5a1.49 1.49 0 0 1-1.49 1.5Zm14.87-.58c-.78 0-1.43-.61-1.49-1.38v-.12c0-.78.61-1.43 1.39-1.49 4.9-.39 9.83-.97 14.66-1.73.82-.13 1.59.43 1.72 1.25.06.39-.03.79-.27 1.11-.23.32-.58.54-.98.6-4.89.77-9.91 1.36-14.9 1.76H289Zm-44.48-2.33c-.08 0-.16 0-.24-.02-4.97-.8-9.92-1.77-14.71-2.87-.68-.16-1.16-.76-1.16-1.46 0-.12 0-.23.04-.34.18-.8 1-1.31 1.8-1.13 4.7 1.09 9.58 2.04 14.5 2.84.82.13 1.38.91 1.25 1.72-.12.73-.74 1.26-1.48 1.26Zm73.87-2.31a1.497 1.497 0 0 1-1.5-1.49c0-.7.47-1.3 1.15-1.47 4.75-1.13 9.53-2.48 14.21-4.01.78-.25 1.64.2 1.89.97.25.78-.18 1.63-.97 1.89-4.72 1.53-9.58 2.9-14.44 4.07-.12.03-.24.04-.35.04Zm-102.86-4.4c-.14 0-.29-.02-.44-.06-4.79-1.48-9.55-3.13-14.16-4.93-.58-.23-.95-.77-.95-1.39 0-.19.03-.38.1-.55.29-.76 1.18-1.15 1.94-.85 4.55 1.77 9.25 3.4 13.95 4.85.39.12.7.38.89.73.19.35.23.76.11 1.14-.2.64-.77 1.06-1.44 1.06Zm131.14-4.79c-.61 0-1.15-.37-1.38-.93-.08-.18-.12-.38-.12-.58 0-.61.37-1.15.93-1.38 4.51-1.87 9.02-3.95 13.39-6.19h.02c.72-.36 1.64-.05 2 .66.38.74.09 1.65-.65 2.02-4.44 2.27-9.02 4.39-13.61 6.29-.19.08-.38.12-.58.12Zm-158.83-6.05c-.23 0-.45-.05-.65-.15a187.89 187.89 0 0 1-13.24-7.08c-.46-.27-.74-.77-.73-1.31 0-.26.07-.52.2-.74.41-.69 1.37-.94 2.06-.53 4.22 2.48 8.6 4.82 13.01 6.96.75.36 1.06 1.26.7 2-.25.52-.78.85-1.35.85Zm185.31-7.48a1.506 1.506 0 0 1-1.5-1.49c0-.53.26-1.01.71-1.28v-.01s.03-.02.05-.03a188.5 188.5 0 0 0 12.22-8.19c.64-.47 1.63-.31 2.09.33.24.33.34.72.27 1.12-.06.39-.27.74-.6.98-4 2.91-8.18 5.71-12.41 8.31 0 .01-.03.03-.05.04h-.01c-.24.14-.5.22-.78.22Zm-210.94-7.62c-.31 0-.61-.09-.86-.27-4.08-2.88-8.07-5.97-11.88-9.18a1.49 1.49 0 0 1-.54-1.16c.01-.35.13-.68.36-.95.51-.61 1.5-.7 2.11-.18 3.74 3.14 7.67 6.18 11.68 9.02.33.23.55.57.61.97.07.39-.02.79-.25 1.12-.28.39-.74.63-1.23.63Zm235-9.89c-.44 0-.86-.19-1.14-.53-.24-.27-.37-.62-.36-.98 0-.44.19-.85.52-1.13 3.74-3.2 7.39-6.57 10.85-10.03.56-.57 1.55-.57 2.12 0a1.499 1.499 0 0 1 0 2.12c-3.54 3.54-7.25 6.97-11.02 10.19-.27.23-.62.36-.97.36Zm-257.74-9.27c-.41 0-.78-.15-1.07-.44-3.52-3.52-6.94-7.23-10.16-11.04-.22-.27-.35-.61-.35-.95 0-.45.19-.88.53-1.17.61-.51 1.6-.43 2.11.18 3.18 3.76 6.54 7.41 10 10.86.28.3.43.67.43 1.06s-.15.78-.43 1.06c-.29.29-.66.44-1.06.44Zm278.78-11.78c-.36 0-.71-.12-.98-.35a1.512 1.512 0 0 1-.16-2.12c3.2-3.75 6.28-7.66 9.15-11.6.47-.64 1.45-.8 2.1-.33.32.24.53.59.59.98.07.4-.03.79-.26 1.12-2.94 4.03-6.06 7.99-9.3 11.78-.29.33-.7.52-1.14.52Zm-297.99-10.95c-.48 0-.94-.23-1.22-.63-2.88-4.05-5.63-8.28-8.19-12.59a1.5 1.5 0 0 1 .53-2.06c.68-.4 1.65-.15 2.05.53 2.52 4.24 5.23 8.4 8.05 12.38.48.68.32 1.62-.35 2.1-.26.18-.56.27-.87.27Zm315.5-13.11c-.28 0-.55-.08-.79-.23-.45-.27-.71-.75-.71-1.28 0-.28.08-.55.22-.78 2.57-4.19 5-8.52 7.23-12.89.37-.71 1.3-1.02 2.02-.65.36.18.62.49.75.87.12.38.09.79-.1 1.15-2.26 4.43-4.73 8.84-7.34 13.09-.28.45-.76.72-1.28.72Zm-330.69-12.48c-.57 0-1.09-.33-1.35-.84a192.38 192.38 0 0 1-6.05-13.74c-.07-.18-.1-.36-.1-.55 0-.62.37-1.17.95-1.4.75-.3 1.64.1 1.94.85 1.81 4.58 3.81 9.13 5.96 13.52.36.74.05 1.64-.69 2.01-.21.1-.43.15-.66.15Zm344.22-14.04c-.2 0-.39-.04-.57-.12-.56-.23-.92-.77-.93-1.37 0-.21.04-.4.12-.59 1.88-4.53 3.6-9.2 5.11-13.87.25-.77 1.11-1.21 1.88-.96.79.25 1.22 1.1.97 1.89-1.54 4.74-3.29 9.48-5.2 14.09-.24.56-.78.93-1.39.93ZM94.13 303.08c-.66 0-1.24-.42-1.43-1.05-1.46-4.76-2.76-9.64-3.87-14.51a1.87 1.87 0 0 1-.03-.34c0-.7.48-1.3 1.17-1.45.79-.18 1.61.35 1.79 1.13 1.09 4.83 2.38 9.64 3.81 14.28.11.38.08.79-.11 1.15-.19.35-.5.61-.89.73-.14.04-.29.06-.44.06Zm364.34-14.67a1.5 1.5 0 0 1-1.46-1.85c1.15-4.77 2.11-9.64 2.87-14.48.12-.81.9-1.38 1.71-1.25.82.12 1.38.89 1.25 1.71-.77 4.92-1.75 9.87-2.91 14.72-.16.68-.76 1.15-1.46 1.15ZM87.55 274.05c-.74 0-1.37-.55-1.48-1.27-.74-4.92-1.3-9.93-1.67-14.91v-.12c0-.78.61-1.43 1.39-1.49.82-.06 1.53.56 1.6 1.37s0 .07 0 .1c.37 4.89.92 9.81 1.63 14.6.13.82-.44 1.59-1.26 1.71h-.22Zm375.54-15.03h-.12c-.77-.06-1.38-.72-1.38-1.5v-.11c.38-4.9.58-9.86.58-14.76v-.5c0-.82.68-1.5 1.5-1.5s1.5.67 1.51 1.5v.5c0 4.97-.2 9.99-.58 14.9v.09h-.01a1.5 1.5 0 0 1-1.49 1.37ZM85.34 244.37c-.83 0-1.51-.67-1.51-1.5v-.24c0-4.89.18-9.85.53-14.75.06-.82.75-1.46 1.61-1.39.78.06 1.39.71 1.39 1.49v.11c-.35 4.82-.53 9.71-.53 14.54v.24c0 .83-.67 1.5-1.49 1.5Zm377.71-15.6c-.77 0-1.43-.6-1.5-1.38-.38-4.87-.97-9.81-1.75-14.66-.13-.82.43-1.59 1.25-1.72.82-.13 1.58.43 1.71 1.24.79 4.93 1.39 9.94 1.79 14.9v.12c0 .78-.6 1.43-1.38 1.5h-.12ZM87.49 214.68c-.08 0-.15 0-.23-.02-.39-.05-.74-.26-.98-.58a1.5 1.5 0 0 1-.28-1.12c.72-4.94 1.64-9.9 2.73-14.75.17-.79 1-1.32 1.79-1.14.69.16 1.17.75 1.17 1.45 0 .12 0 .23-.03.34-1.07 4.79-1.98 9.68-2.69 14.54-.11.73-.75 1.28-1.48 1.28Zm370.87-15.29c-.7 0-1.3-.47-1.46-1.14-1.15-4.76-2.51-9.54-4.04-14.21-.26-.79.17-1.64.96-1.89.77-.26 1.64.19 1.89.96 1.55 4.73 2.93 9.58 4.1 14.43.03.11.04.22.04.34 0 .7-.46 1.31-1.14 1.47-.12.03-.24.04-.35.04ZM94 185.64c-.15 0-.3-.02-.44-.07a1.5 1.5 0 0 1-.89-.73c-.19-.35-.23-.76-.11-1.14 1.46-4.78 3.12-9.55 4.93-14.17.29-.76 1.18-1.15 1.94-.86.58.23.96.78.96 1.4 0 .19-.04.37-.11.55-1.77 4.54-3.41 9.24-4.85 13.96-.19.63-.77 1.06-1.43 1.06Zm355.1-14.51c-.6 0-1.15-.36-1.38-.92-1.89-4.52-3.98-9.02-6.22-13.39a1.5 1.5 0 0 1 .65-2.02c.72-.37 1.65-.06 2.02.65 2.28 4.45 4.41 9.03 6.32 13.6.07.19.11.39.11.59 0 .6-.36 1.14-.92 1.38-.18.07-.38.11-.58.11Zm-344.24-13.2c-.23 0-.45-.05-.66-.15a1.5 1.5 0 0 1-.69-2c2.19-4.51 4.58-8.96 7.09-13.22.4-.69 1.37-.94 2.06-.53.46.27.74.77.73 1.31 0 .26-.07.51-.2.74-2.47 4.18-4.82 8.56-6.98 13.01-.26.52-.77.84-1.35.84Zm330.66-13.25c-.52 0-.99-.27-1.27-.7v-.02c0-.02-.03-.04-.04-.07-2.58-4.17-5.34-8.27-8.2-12.18-.49-.67-.34-1.61.33-2.1.65-.47 1.63-.31 2.09.33 2.93 4 5.73 8.17 8.33 12.38.02.02.03.05.05.07.14.24.22.51.22.78 0 .52-.26 1-.71 1.28-.24.15-.51.23-.79.23Zm-315.55-12.36c-.31 0-.61-.1-.87-.27-.67-.48-.83-1.42-.35-2.1 2.88-4.08 5.96-8.08 9.15-11.88.51-.61 1.51-.7 2.12-.18.34.29.53.71.53 1.16 0 .35-.13.69-.35.95-3.14 3.75-6.17 7.67-9 11.67-.28.41-.74.65-1.23.65Zm297.99-11.66c-.43 0-.85-.19-1.14-.52-3.18-3.72-6.57-7.36-10.05-10.83-.27-.29-.43-.66-.43-1.05 0-.41.15-.78.44-1.07.56-.57 1.55-.57 2.12 0 3.52 3.5 6.95 7.2 10.21 10.99.24.28.37.62.36.99 0 .43-.19.84-.52 1.13-.27.23-.62.36-.98.36ZM139.1 109.55c-.4 0-.78-.15-1.06-.43-.59-.59-.59-1.54 0-2.13 3.51-3.53 7.22-6.96 11.03-10.18.61-.51 1.6-.43 2.11.18.24.27.36.62.36.98 0 .44-.2.85-.53 1.13-3.73 3.16-7.38 6.53-10.85 10.01-.28.28-.66.44-1.06.44Zm257.78-9.89c-.36 0-.7-.13-.98-.36-3.74-3.18-7.65-6.26-11.61-9.13-.32-.23-.53-.58-.59-.97-.07-.39.03-.79.26-1.11.47-.65 1.45-.81 2.1-.34 4.04 2.93 8.01 6.06 11.8 9.28.33.28.52.69.53 1.13 0 .36-.13.71-.36.99-.29.33-.7.52-1.14.52ZM161.8 90.33h-.01c-.48 0-.94-.24-1.22-.63-.23-.33-.32-.73-.26-1.12.07-.4.29-.74.61-.97 4.03-2.87 8.26-5.62 12.59-8.18.68-.41 1.65-.16 2.05.52.14.24.21.51.21.78 0 .53-.28 1.01-.73 1.28-4.24 2.51-8.4 5.21-12.38 8.04v.01c-.25.17-.55.27-.85.27Zm210.97-8.13c-.27 0-.54-.08-.77-.22s-.04-.03-.06-.04c-4.17-2.55-8.49-4.96-12.84-7.17h-.01a1.502 1.502 0 0 1-.65-2.02c.36-.71 1.29-1.02 2.02-.65 4.43 2.25 8.82 4.7 13.05 7.29l.06.03a1.51 1.51 0 0 1 .48 2.06c-.27.45-.75.72-1.28.72Zm-185.39-7.04c-.58 0-1.11-.33-1.36-.84a1.51 1.51 0 0 1 .7-2.01c4.46-2.17 9.08-4.2 13.73-6.03.75-.3 1.65.09 1.94.84.07.18.11.36.11.55 0 .62-.38 1.17-.95 1.4-4.6 1.81-9.15 3.81-13.52 5.94-.21.1-.43.15-.65.15Zm158.84-6.44c-.19 0-.38-.04-.57-.12-4.53-1.86-9.19-3.58-13.87-5.08a1.498 1.498 0 0 1-.96-1.89c.24-.77 1.1-1.22 1.88-.97 4.74 1.52 9.49 3.26 14.11 5.17.56.23.92.77.93 1.37 0 .2-.04.4-.12.59-.23.56-.78.93-1.39.93Zm-131.18-4.47c-.65 0-1.24-.44-1.43-1.06-.12-.38-.08-.79.1-1.14.19-.36.51-.62.89-.74 4.7-1.45 9.56-2.77 14.46-3.91.8-.19 1.62.32 1.81 1.12.02.11.04.22.04.34 0 .7-.48 1.3-1.16 1.46-4.83 1.12-9.63 2.42-14.27 3.86-.14.04-.29.07-.43.07Zm102.85-4.67c-.11 0-.23-.01-.34-.04-4.75-1.12-9.63-2.08-14.5-2.83-.81-.13-1.38-.89-1.25-1.71.13-.82.89-1.38 1.71-1.26 4.9.76 9.83 1.73 14.64 2.87.03 0 .06.01.09.01.68.18 1.15.77 1.14 1.47a1.489 1.489 0 0 1-1.5 1.49ZM244 57.47c-.73 0-1.35-.53-1.47-1.26-.14-.81.42-1.59 1.23-1.72 4.85-.79 9.84-1.45 14.85-1.95.82-.08 1.56.53 1.65 1.35v.15c0 .77-.58 1.41-1.34 1.49l-.02-.05v.05c-4.91.49-9.84 1.14-14.64 1.92-.08.01-.16.02-.25.02Zm44.5-2.45h-.12c-4.74-.36-9.56-.54-14.32-.54h-.38c-.87.03-1.53-.61-1.56-1.43-.02-.4.12-.79.39-1.08.28-.3.65-.47 1.05-.48l.44-.02c4.86 0 9.77.19 14.61.55.77.06 1.38.71 1.38 1.49v.12c-.06.78-.71 1.38-1.49 1.38Z" fill="#494949"/><path fill="#fff" d="M28 218.65h492v127H28z"/><path d="M541.22 340.31H6.78c-5.96 0-9.01-10.95-4.89-17.55l18.12-29.02c4.07-6.52 4.05-16.81-.05-23.28L2.09 242.25c-4.17-6.58-1.13-17.61 4.86-17.61h534.27c5.97 0 9.02 10.99 4.87 17.58l-18 28.62c-4.09 6.5-4.09 16.78 0 23.28l18 28.62c4.14 6.59 1.1 17.58-4.87 17.58Z" fill="#94deff"/><path d="M.06 331.18h547.88c.13-1.51.03-3.07-.3-4.57H.36c-.33 1.5-.43 3.06-.3 4.57Zm.1-95.89c.02 1.55.28 3.11.79 4.57H547.2c.51-1.46.77-3.02.79-4.57H.16Zm68.8 22.73h8.69v47.4h14.3v7.9H68.96v-55.3Zm27.18 0h23.7v7.9h-15.01v14.61h11.93v7.9h-11.93v16.98h15.01v7.9h-23.7v-55.3Zm41.31 0h12.4l5.53 39.58h.16l5.53-39.58h12.4v55.3h-8.21v-41.87h-.16l-6.32 41.87h-7.27l-6.32-41.87h-.16v41.87h-7.58v-55.3Zm41.87 42.19v-29.07c0-8.85 4.66-13.9 13.19-13.9s13.19 5.06 13.19 13.9v29.07c0 8.85-4.66 13.9-13.19 13.9s-13.19-5.06-13.19-13.9Zm17.69.55v-30.18c0-3.95-1.74-5.45-4.5-5.45s-4.5 1.5-4.5 5.45v30.18c0 3.95 1.74 5.45 4.5 5.45s4.5-1.5 4.5-5.45Zm14.54-42.74h10.9l8.45 33.1h.16v-33.1h7.74v55.3h-8.93l-10.43-40.37h-.16v40.37h-7.74v-55.3Zm33.73 0h13.27c8.69 0 12.96 4.82 12.96 13.67v27.96c0 8.85-4.27 13.67-12.96 13.67h-13.27v-55.3Zm13.11 47.4c2.76 0 4.42-1.42 4.42-5.37V271.3c0-3.95-1.66-5.37-4.42-5.37h-4.42v39.5h4.42Zm18.97-47.4h23.7v7.9h-15.01v14.61h11.93v7.9h-11.93v16.98h15.01v7.9h-23.7v-55.3Zm41.31 0h23.7v7.9h-15.01v14.61h11.93v7.9h-11.93v16.98h15.01v7.9h-23.7v-55.3Zm28.68 0h10.9l8.45 33.1h.16v-33.1h7.74v55.3h-8.93l-10.43-40.37h-.16v40.37h-7.74v-55.3Zm40.53 7.9h-9.08v-7.9h26.86v7.9h-9.08v47.4h-8.69v-47.4Zm21.96-7.9h8.69v55.3h-8.69v-55.3Zm15.17 0h23.7v7.9H433.7v14.61h11.93v7.9H433.7v16.98h15.01v7.9h-23.7v-55.3Zm28.67 0h12.88c9 0 12.88 4.19 12.88 12.72v3.4c0 5.69-1.82 9.32-5.69 10.9v.16c4.34 1.34 5.77 5.45 5.77 11.69v9.72c0 2.69.08 4.66.95 6.71h-8.85c-.47-1.42-.79-2.29-.79-6.79v-10.11c0-5.13-1.5-6.79-5.45-6.79h-3v23.7h-8.69v-55.3Zm11.85 23.7c3.24 0 5.21-1.42 5.21-5.85v-4.27c0-3.95-1.34-5.69-4.42-5.69h-3.95v15.8h3.16Z" fill="#fff"/><path d="M168.04 105.54h18.9v6.3h-11.97v11.66h9.51v6.3h-9.51v13.54h11.97v6.3h-18.9v-44.1Zm29.11 21.55-7.62-21.55h7.31l4.66 14.24h.13l4.79-14.24h6.55l-7.62 21.55 8 22.56h-7.31L201 134.28h-.13l-5.17 15.37h-6.55l8-22.56Zm19.46-21.55h10.21c6.93 0 10.33 3.84 10.33 10.9v4.35c0 7.06-3.4 10.9-10.33 10.9h-3.28v17.96h-6.93v-44.1Zm10.21 19.85c2.21 0 3.4-1.01 3.4-4.16V116c0-3.15-1.2-4.16-3.4-4.16h-3.28v13.54h3.28Zm14.11-19.85h18.9v6.3h-11.97v11.66h9.51v6.3h-9.51v13.54h11.97v6.3h-18.9v-44.1Zm10.08-10.21h7.56l-6.74 7.25h-5.23l4.41-7.25Zm12.79 10.21h10.58c6.93 0 10.33 3.84 10.33 10.9v22.3c0 7.06-3.4 10.9-10.33 10.9H263.8v-44.1Zm10.46 37.8c2.21 0 3.53-1.13 3.53-4.28v-22.93c0-3.15-1.32-4.28-3.53-4.28h-3.53v31.5h3.53Zm15.12-37.8h6.93v44.1h-6.93v-44.1Zm17.51 6.3h-7.25v-6.3h21.42v6.3h-7.25v37.8h-6.93v-37.8Zm17.51-6.3h6.93v44.1h-6.93v-44.1Zm11.59 33.64V116c0-7.06 3.72-11.09 10.52-11.09s10.52 4.03 10.52 11.09v23.18c0 7.06-3.72 11.09-10.52 11.09s-10.52-4.03-10.52-11.09Zm14.11.44v-24.07c0-3.15-1.39-4.35-3.59-4.35s-3.59 1.2-3.59 4.35v24.07c0 3.15 1.39 4.35 3.59 4.35s3.59-1.2 3.59-4.35Zm11.6-34.08h8.69l6.74 26.4h.13v-26.4h6.17v44.1h-7.12l-8.32-32.19h-.13v32.19h-6.17v-44.1Zm-133.9 62.07h10.58c6.93 0 10.33 3.84 10.33 10.9v22.3c0 7.06-3.4 10.9-10.33 10.9H227.8v-44.1Zm10.46 37.8c2.21 0 3.53-1.13 3.53-4.28V178.2c0-3.15-1.32-4.28-3.53-4.28h-3.53v31.5h3.53Zm20.34-37.8h9.39l7.18 44.1h-6.93l-1.26-8.76v.13h-7.88l-1.26 8.63h-6.43l7.18-44.1Zm7.56 29.49-3.09-21.8h-.13l-3.02 21.8h6.24Zm12.35-29.49h8.69l6.74 26.4h.13v-26.4h6.17v44.1h-7.12l-8.32-32.19h-.13v32.19h-6.17v-44.1Zm25.7 33.64v-2.52h6.55v3.02c0 3.15 1.39 4.28 3.59 4.28s3.59-1.13 3.59-4.41c0-3.65-1.39-5.99-5.92-9.96-5.8-5.1-7.69-8.69-7.69-13.73 0-6.93 3.59-10.96 10.33-10.96s10.08 4.03 10.08 11.09v1.83h-6.55v-2.27c0-3.15-1.26-4.35-3.47-4.35s-3.46 1.2-3.46 4.22c0 3.21 1.45 5.54 5.99 9.51 5.8 5.1 7.62 8.63 7.62 14.11 0 7.18-3.65 11.21-10.46 11.21s-10.21-4.03-10.21-11.09Zm-29.47 173.26 5.76 11.68 12.88 1.87-9.32 9.09 2.2 12.83-11.52-6.06-11.53 6.06 2.2-12.83-9.32-9.09 12.89-1.87 5.76-11.68zm-42.64.95 3.71 7.52 8.3 1.21-6.01 5.85 1.42 8.27-7.42-3.9-7.43 3.9 1.42-8.27-6.01-5.85 8.3-1.21 3.72-7.52zm84.87-4.91 3.68 7.45 8.22 1.2-5.95 5.79 1.4 8.19-7.35-3.86-7.35 3.86 1.4-8.19-5.95-5.79 8.22-1.2 3.68-7.45z" fill="#494949"/></svg>