<svg xmlns="http://www.w3.org/2000/svg" width="90" viewBox="0 0 600 500" style="height:auto!important"><path d="M492 242.65c0 14.22-13.15 27.11-15.52 40.65s5.47 30.52.74 43.51c-4.81 13.22-21.58 20.84-28.54 32.85-7.02 12.13-5.28 30.45-14.24 41.12-8.99 10.7-27.34 12.15-38.04 21.13-10.67 8.96-15.26 26.8-27.39 33.81-12.02 6.95-29.75 2.06-42.97 6.87-12.99 4.73-23.41 19.91-37.33 22.35-13.54 2.37-28.5-8.3-42.72-8.3s-29.18 10.67-42.72 8.3c-13.92-2.44-24.35-17.62-37.33-22.35-13.22-4.81-30.95.08-42.97-6.87-12.13-7.02-16.72-24.85-27.39-33.81-10.7-8.99-29.05-10.43-38.04-21.13-8.96-10.67-7.22-28.99-14.24-41.12s-23.72-19.63-28.54-32.85c-4.73-12.99 3.18-29.58.74-43.51-2.37-13.54-15.52-26.43-15.52-40.65S13.13 215.54 15.5 202c2.44-13.92-5.47-30.52-.74-43.51 4.81-13.22 21.58-20.84 28.54-32.85 7.02-12.13 5.28-30.45 14.24-41.12 8.99-10.7 27.34-12.15 38.04-21.13 10.67-8.96 15.26-26.8 27.39-33.81 12.02-6.95 29.75-2.06 42.97-6.87S189.36 2.78 203.28.34c13.54-2.37 28.5 8.3 42.72 8.3s29.18-10.67 42.72-8.3c13.92 2.44 24.35 17.62 37.33 22.35s30.95-.08 42.97 6.87c12.13 7.02 16.72 24.85 27.39 33.81 10.7 8.99 29.05 10.43 38.04 21.13 8.96 10.67 7.22 28.99 14.24 41.12 6.95 12.02 23.72 19.63 28.54 32.85s-3.18 29.58-.74 43.51c2.37 13.54 15.52 26.43 15.52 40.65Z" fill="#494949"/><circle cx="246" cy="242.65" r="212.81" fill="#fff"/><path d="M101.49 209.54 76.5 201.9c-7.61-2.33-10.9-7.09-8.87-13.72 2.03-6.63 7.42-8.74 15.03-6.41l4.07 1.25-1.95 6.38-4.55-1.39c-3.4-1.04-5.1-.08-5.75 2.06s.22 3.89 3.62 4.93l26.01 7.95c3.39 1.04 5.03.06 5.69-2.09.66-2.15-.15-3.87-3.55-4.91l-9.3-2.84-1.03 3.38-6.79-2.08 2.98-9.76 15.55 4.76c7.61 2.33 10.9 7.09 8.87 13.72-2.03 6.63-7.42 8.74-15.03 6.41Zm-23.15-47.59 4.21-8.59 47.85 15.29-3.11 6.34-9.43-3.19.13.06-3.53 7.2 8.17 5.43-2.88 5.88-41.42-28.43Zm33.23 7.7-23.45-7.98-.06.12 20.71 13.57 2.79-5.71Zm-19.76-32.71 6.09-8.5c4.26-5.95 9.15-6.31 15.38-1.85l2.48 1.78c4.16 2.98 5.95 6.08 5.28 9.46l.12.08c3.04-2.17 6.71-.96 11.27 2.31l7.1 5.09c1.96 1.41 3.44 2.39 5.36 2.89l-4.19 5.84c-1.26-.43-2.05-.68-5.34-3.03l-7.39-5.29c-3.75-2.69-5.67-2.56-7.54.04l-1.42 1.98 17.32 12.41-4.11 5.74-40.41-28.95Zm22.92 4.58c1.53-2.14 1.43-4.19-1.81-6.5l-3.12-2.23c-2.89-2.07-4.79-2.09-6.25-.06l-1.87 2.61 11.54 8.27 1.5-2.09Zm1.91-35.59 6.82-6.7 40.04 30.34-5.04 4.94-7.83-6.14.1.1-5.72 5.62 5.9 7.84-4.67 4.58-29.6-40.59Zm28.77 18.31-19.46-15.33-.09.09 15.01 19.69 4.53-4.45Zm-6.85-38.07 7.37-4.91 22.21 20.94.11-.07-16.5-24.75 5.23-3.49 27.57 41.35-6.03 4.02-27.17-25.48-.11.07 20.12 30.18-5.23 3.49-27.57-41.35Zm39.12-14.63-6.8 2.87-2.76-6.54 20.1-8.49 2.76 6.54-6.8 2.87 16.58 39.24-6.5 2.75-16.58-39.24Zm20.25-14.98 6.82-1.83 12.92 47.99-6.82 1.83-12.92-47.99Zm18.55-4.53 19.1-2.39.88 7.04-12.1 1.52 1.63 13.03 9.62-1.21.88 7.05-9.62 1.21 1.9 15.15 12.1-1.52.88 7.04-19.1 2.39-6.18-49.31Zm39.88 35.29.39-2.81 6.61.92-.47 3.38c-.49 3.52.74 4.98 2.96 5.28s3.8-.76 4.3-4.42c.56-4.08-.47-6.87-4.44-11.94-5.06-6.51-6.41-10.78-5.63-16.41 1.07-7.74 5.32-11.74 12.12-10.79 6.8.94 9.55 5.91 8.46 13.79l-.28 2.04-6.61-.92.35-2.53c.49-3.52-.6-5.03-2.82-5.34s-3.68.85-4.15 4.23c-.5 3.59.61 6.39 4.57 11.46 5.06 6.51 6.36 10.7 5.51 16.82-1.11 8.02-5.42 12.01-12.29 11.06s-9.67-5.93-8.58-13.8Zm44.06-29.83 9.05 3.08-9.08 49.41-6.68-2.27 1.96-9.76-.05.13-7.59-2.58-4.35 8.79-6.2-2.11 22.94-44.69Zm-3.41 33.94 4.94-24.27-.12-.04L291 89.38l6.02 2.05Zm28.56-16.02-6.51-3.48 3.35-6.26 19.24 10.3-3.35 6.26-6.51-3.48-20.11 37.55-6.22-3.33 20.11-37.56Zm24.13 6.15 5.74 4.11-28.95 40.4-5.74-4.11 28.95-40.4Zm-11.83 38.05 1.94-2.08 4.88 4.55-2.32 2.49c-2.42 2.6-2.26 4.5-.61 6.03 1.64 1.53 3.55 1.56 6.06-1.14 2.81-3.01 3.56-5.9 3.23-12.32-.4-8.23.95-12.51 4.82-16.66 5.32-5.72 11.1-6.55 16.12-1.87s4.42 10.32-1 16.14l-1.4 1.51-4.88-4.55 1.74-1.87c2.42-2.6 2.4-4.46.75-5.99-1.64-1.53-3.5-1.42-5.82 1.08-2.47 2.65-3.18 5.58-2.84 12 .4 8.23-.95 12.41-5.16 16.93-5.52 5.92-11.34 6.71-16.41 1.99s-4.51-10.41.91-16.23Zm49-4.7 11.53 14.69-5.58 4.38-7.17-9.14-10.89 8.55 5.63 7.17-5.58 4.38-5.63-7.17-17.03 13.37-4.36-5.55 39.09-30.69Zm18.92 26.35 4.78 8.28-39.4 31.16-3.53-6.12 7.91-6.04-.12.07-4.01-6.95-9.07 3.75-3.27-5.67 46.71-18.48Zm-24.94 23.27 19.71-14.99-.06-.11-22.82 9.6 3.17 5.5Zm37.06-.09 2.76 6.5-45.73 19.46-2.76-6.5 45.73-19.46Zm1.48 23.78-2.12-7.07 6.8-2.04 6.27 20.9-6.8 2.04-2.12-7.07-40.8 12.24-2.03-6.76 40.8-12.24ZM76.05 301.94l24.69-9.61c7.51-2.92 13.26-.87 15.91 5.95 2.65 6.82-.19 12.21-7.71 15.13l-24.69 9.61c-7.51 2.92-13.26.87-15.91-5.94-2.65-6.82.19-12.21 7.71-15.13Zm5.03 14.32 25.63-9.97c3.35-1.3 4.09-3.19 3.23-5.4s-2.67-3.1-6.03-1.8l-25.63 9.97c-3.36 1.3-4.09 3.19-3.23 5.4s2.67 3.1 6.03 1.8Zm7.93 16.36 32.88-19.94 3.86 6.37-33.37 20.24c-3.08 1.87-3.45 3.75-2.22 5.78 1.23 2.03 3.08 2.57 6.15.7l33.37-20.24 3.72 6.14-32.88 19.94c-6.9 4.18-12.8 3.33-16.59-2.92s-1.82-11.89 5.08-16.07Zm53.75 10.86 7.88 7.73c5.51 5.41 5.21 10.45-.23 16.01l-2.17 2.21c-3.63 3.7-7.06 4.98-10.44 3.68l-.1.1c1.8 3.48.05 7.01-3.93 11.07l-6.2 6.32c-1.71 1.75-2.92 3.08-3.7 4.94l-5.42-5.31c.62-1.21.98-1.97 3.85-4.9l6.45-6.58c3.28-3.34 3.42-5.32 1-7.69l-1.84-1.8-15.12 15.43-5.32-5.22 35.28-36Zm-7.87 22.54c1.98 1.94 4.1 2.2 6.92-.68l2.72-2.78c2.52-2.57 2.81-4.51.92-6.36l-2.42-2.37-10.08 10.28 1.93 1.9Zm27.2-4.33 16.78 11.45-4.06 5.95-10.63-7.25-7.51 11 8.45 5.76-4.06 5.95-8.45-5.76-8.72 12.79 10.63 7.25-4.06 5.95-16.78-11.45 28.4-41.63Zm19.54 13.51 9.86 3.98-9.11 35.23.13.05 17.9-31.68 9.86 3.98-18.86 46.74-6.53-2.64 14.28-35.39-.12-.05-19.31 33.36-5.78-2.33 9.26-37.42-.13-.05-14.28 35.39-6.03-2.43 18.86-46.74Zm33.26 12.29L226 389.2c7.63 1.17 10.33 5.45 9.15 13.13l-.31 1.99c-.79 5.12-2.75 8.1-6.25 9.02l-.02.14c3.73 2.03 4.7 5.97 3.89 11.23l-.66 4.27c-1.18 7.69-5.63 11.23-12.99 10.1l-11.58-1.78 7.66-49.82Zm5.01 44.48c2.48.38 4-.62 4.57-4.32l.67-4.34c.71-4.63-.47-6.27-3.82-6.78l-3.28-.5-2.35 15.3 4.22.65Zm2.11-22.62c2.74.42 4.61-.6 5.23-4.59l.43-2.78c.55-3.56-.35-5.3-2.96-5.7l-3.55-.54-2.02 13.17 2.88.44Zm20.32 20.12L241.17 403c-.35-8.06 3.44-12.83 10.75-13.15 7.31-.32 11.5 4.11 11.85 12.17l1.16 26.47c.35 8.06-3.44 12.83-10.75 13.15-7.31.32-11.5-4.11-11.85-12.17Zm15.18-.16-1.2-27.48c-.16-3.6-1.71-4.9-4.07-4.79-2.37.1-3.8 1.54-3.64 5.13l1.2 27.48c.16 3.6 1.71 4.9 4.07 4.79s3.8-1.54 3.64-5.13Zm18.79-2.47-9.17-37.34 7.23-1.78 9.3 37.9c.86 3.5 2.55 4.42 4.85 3.85 2.3-.56 3.37-2.16 2.52-5.66l-9.3-37.9 6.97-1.71 9.17 37.34c1.92 7.83-.66 13.21-7.76 14.96-7.1 1.74-11.88-1.83-13.81-9.66Zm16.61-44.15 10-4.67c6.99-3.27 11.62-1.21 14.91 5.83l1.31 2.81c2.19 4.7 2.18 8.36-.21 11.06l.06.13c3.89-.47 6.58 2.41 8.99 7.56l3.75 8.02c1.04 2.22 1.86 3.82 3.33 5.2l-6.87 3.21c-.92-1-1.5-1.61-3.23-5.32l-3.9-8.35c-1.98-4.24-3.79-5.07-6.85-3.63l-2.33 1.09 9.14 19.57-6.75 3.15-21.33-45.66Zm18.34 15.27c2.52-1.17 3.5-3.07 1.79-6.72l-1.65-3.52c-1.52-3.26-3.24-4.21-5.63-3.09l-3.07 1.43 6.09 13.05 2.45-1.15Zm26.77 5.03-1.68-2.34 5.73-4.1 2.01 2.81c2.09 2.93 4.06 3.12 5.99 1.74s2.38-3.3.21-6.34c-2.43-3.4-5.19-4.7-11.8-5.55-8.46-1.12-12.5-3.28-15.85-7.96-4.61-6.44-4.15-12.44 1.74-16.65 5.89-4.22 11.49-2.56 16.19 4l1.21 1.7-5.73 4.1-1.51-2.11c-2.09-2.93-3.99-3.25-5.92-1.87s-2.23 3.28-.22 6.09c2.14 2.99 4.95 4.25 11.56 5.1 8.46 1.12 12.4 3.26 16.05 8.35 4.78 6.68 4.26 12.71-1.68 16.96-5.95 4.26-11.6 2.63-16.3-3.92Zm-2.33-62.53 5.72-5.77.78 10.97-3.96 3.99-2.54-9.19Zm.66 15.9 14.3-14.43 5.11 5.07-9.06 9.14 9.46 9.38 7.2-7.26 5.11 5.07-7.2 7.26 11 10.89 9.06-9.14 5.11 5.07-14.3 14.43-35.8-35.47Zm22.93-25.57 5.84-9.76c3.82-6.39 9.47-7.28 16.39-3.14l21.88 13.08c6.92 4.14 8.81 9.53 4.99 15.92l-5.84 9.76-43.26-25.87Zm42.85 12.53c1.22-2.03.83-3.92-2.26-5.77l-22.49-13.45c-3.09-1.85-4.93-1.29-6.15.74l-1.95 3.25 30.9 18.48 1.95-3.25Zm-29.57-35.77 7.39-18.92 6.71 2.62-4.68 11.99 12.41 4.84 3.72-9.52 6.71 2.62-3.72 9.52 14.42 5.63 4.68-11.99 6.71 2.62-7.39 18.92-46.95-18.33Zm-287.89-64.5 3.23 6.55 7.22 1.05-5.22 5.09 1.23 7.2-6.46-3.4-6.46 3.4 1.23-7.2-5.22-5.09 7.22-1.05 3.23-6.55zm327.1 0 3.23 6.55 7.22 1.05-5.22 5.09 1.23 7.2-6.46-3.4-6.46 3.4 1.24-7.2-5.23-5.09 7.22-1.05 3.23-6.55z" fill="#494949"/><circle cx="246" cy="242.65" r="86" fill="#94deff"/><path d="M215.76 238.73v-4.54h8.29v4.94c0 3.98 1.75 5.5 4.54 5.5s4.54-1.35 4.54-6.29v-4.54c0-5.18-1.75-7.09-5.74-7.09h-2.95v-7.97h3.19c3.27 0 5.26-1.43 5.26-5.9v-4.06c0-3.98-1.83-5.58-4.38-5.58s-4.22 1.51-4.22 5.18v3.66H216v-2.95c0-8.92 4.46-13.86 12.83-13.86s12.83 4.86 12.83 13.78V211c0 5.98-1.91 9.64-6.21 11.23v.16c4.7 1.75 6.45 5.82 6.45 11.47v4.94c0 8.92-4.46 13.78-13.07 13.78s-13.07-4.94-13.07-13.86Zm31.87-.16v-29.32c0-8.92 4.7-14.02 13.3-14.02s13.3 5.1 13.3 14.02v29.32c0 8.92-4.7 14.02-13.3 14.02s-13.3-5.1-13.3-14.02Zm17.85.56V208.7c0-3.98-1.75-5.5-4.54-5.5s-4.54 1.51-4.54 5.5v30.43c0 3.98 1.75 5.5 4.54 5.5s4.54-1.51 4.54-5.5Zm-54.14 49.86v-3.72c.45.11.89.15 1.34.15 1.64 0 2.42-.78 2.42-2.49v-19.98h4.09v19.87c0 4.28-1.93 6.32-5.95 6.32-.74 0-1.3-.04-1.9-.15Zm10.49-6.17v-13.69c0-4.17 2.19-6.55 6.21-6.55s6.21 2.38 6.21 6.55v13.69c0 4.17-2.19 6.55-6.21 6.55s-6.21-2.38-6.21-6.55Zm8.33.26v-14.21c0-1.86-.82-2.57-2.12-2.57s-2.12.71-2.12 2.57v14.21c0 1.86.82 2.57 2.12 2.57s2.12-.71 2.12-2.57Zm6.69-.26v-19.87h4.09v20.16c0 1.86.78 2.53 2.08 2.53s2.08-.67 2.08-2.53v-20.16h3.94v19.87c0 4.17-2.08 6.55-6.1 6.55s-6.1-2.38-6.1-6.55Zm15.11-19.87h6.06c4.24 0 6.06 1.97 6.06 5.99v1.6c0 2.68-.86 4.39-2.68 5.13v.08c2.05.63 2.71 2.57 2.71 5.51v4.58c0 1.26.04 2.2.45 3.16h-4.17c-.22-.67-.37-1.08-.37-3.2v-4.76c0-2.42-.71-3.2-2.57-3.2h-1.41V289h-4.09v-26.04Zm5.58 11.16c1.53 0 2.46-.67 2.46-2.75v-2.01c0-1.86-.63-2.68-2.08-2.68h-1.86v7.44h1.49Zm8.7 8.71v-1.49h3.87v1.79c0 1.86.82 2.53 2.12 2.53s2.12-.67 2.12-2.6c0-2.16-.82-3.53-3.5-5.88-3.42-3.01-4.54-5.13-4.54-8.11 0-4.09 2.12-6.47 6.1-6.47s5.95 2.38 5.95 6.55v1.08h-3.87v-1.34c0-1.86-.74-2.57-2.05-2.57s-2.05.71-2.05 2.49c0 1.9.86 3.27 3.53 5.62 3.42 3.01 4.5 5.1 4.5 8.33 0 4.24-2.16 6.62-6.18 6.62s-6.03-2.38-6.03-6.55Z" fill="#fff"/><path d="M246.06 352.48h-.01c-.82 0-1.49-.67-1.49-1.5 0-.4.15-.78.44-1.06.28-.28.66-.44 1.06-.44 5.04 0 10.1-.36 15.06-1.07.81-.12 1.58.47 1.69 1.27.06.4-.04.79-.28 1.11-.24.32-.59.53-.99.59-5.09.73-10.3 1.1-15.48 1.1Zm-15.25-1.41c-.07 0-.15 0-.22-.02-5.18-.78-10.28-1.86-15.16-3.21a1.5 1.5 0 0 1-1.09-1.44c0-.14.01-.28.05-.41.22-.78 1.06-1.26 1.84-1.04h.03c4.75 1.32 9.71 2.38 14.77 3.13.82.12 1.39.89 1.27 1.71-.11.73-.75 1.28-1.49 1.28Zm45.48-2.92c-.66 0-1.25-.45-1.44-1.08a1.491 1.491 0 0 1 1.02-1.86c4.81-1.42 9.57-3.19 14.14-5.29.73-.33 1.65.02 1.99.74.16.37.18.78.04 1.15-.14.38-.42.68-.78.84-4.7 2.15-9.6 3.98-14.55 5.44-.14.04-.28.06-.42.06Zm-74.89-5.34c-.21 0-.41-.05-.6-.13-4.76-2.06-9.38-4.46-13.7-7.14l-.06-.03h-.01c-.44-.28-.71-.76-.7-1.28 0-.28.08-.55.22-.78.43-.68 1.38-.91 2.07-.48 4.22 2.61 8.72 4.96 13.37 6.97.37.16.66.45.8.82.15.38.15.78-.01 1.15-.24.55-.78.91-1.38.91Zm102.66-7.37a1.506 1.506 0 0 1-1.51-1.5c0-.51.26-.97.68-1.25v-.01c.02-.02.05-.03.07-.05 4.2-2.71 8.24-5.74 12.01-9.01.6-.52 1.59-.45 2.11.15.26.3.39.69.37 1.09-.03.4-.22.77-.52 1.03-3.89 3.37-8.05 6.5-12.37 9.28-.01 0-.03.02-.04.03h-.01c-.24.16-.52.24-.8.24Zm-128.59-8.74c-.36 0-.7-.13-.98-.36-3.91-3.34-7.59-7.02-10.95-10.93-.01-.02-.02-.03-.04-.05-.23-.28-.36-.63-.36-.98 0-.44.2-.85.53-1.13.6-.52 1.59-.45 2.11.16 3.27 3.81 6.86 7.4 10.67 10.65.3.27.48.63.52 1.03.03.4-.1.78-.36 1.09-.29.33-.7.52-1.14.52Zm151.65-11.27c-.36 0-.71-.13-.98-.37-.33-.28-.52-.7-.52-1.13 0-.37.14-.71.37-.99 3.3-3.8 6.35-7.87 9.06-12.08.44-.67 1.4-.88 2.07-.45.34.22.57.55.65.95.09.39.02.79-.2 1.13-2.78 4.32-5.91 8.48-9.28 12.38-.01 0-.02.03-.03.04-.29.33-.69.52-1.13.52Zm-171.53-11.89c-.53 0-1-.27-1.28-.71-2.71-4.35-5.14-8.97-7.22-13.75-.09-.19-.13-.38-.13-.58-.01-.61.35-1.15.9-1.4.74-.32 1.65.04 1.98.78 2.02 4.63 4.38 9.13 7.02 13.36.43.7.22 1.63-.48 2.07-.24.15-.51.23-.79.23Zm188.07-13.8c-.22 0-.43-.05-.62-.14-.54-.25-.88-.78-.88-1.37 0-.22.05-.42.14-.62 2.08-4.56 3.86-9.32 5.28-14.15.22-.77 1.07-1.25 1.86-1.02s1.25 1.07 1.01 1.86a108.9 108.9 0 0 1-5.42 14.56c-.25.53-.78.88-1.37.88Zm-200.32-14.2a1.5 1.5 0 0 1-1.44-1.09c-1.37-4.95-2.42-10.06-3.12-15.21v-.19c-.01-.75.55-1.39 1.3-1.5.81-.11 1.57.48 1.68 1.29.68 4.99 1.7 9.96 3.04 14.79.22.81-.25 1.64-1.04 1.86-.13.04-.27.05-.41.05Zm208.92-15.12c-.08 0-.15 0-.22-.02-.74-.1-1.28-.72-1.29-1.47 0-.07 0-.15.02-.22.7-4.95 1.06-10.02 1.06-15.06v-.25c0-.83.67-1.5 1.5-1.5s1.5.67 1.5 1.49v.26c0 5.18-.37 10.39-1.09 15.48-.11.73-.74 1.29-1.48 1.29Zm-213.03-15.16c-.82 0-1.5-.67-1.5-1.5v-.12c0-5.12.34-10.29 1.02-15.36.11-.81.87-1.4 1.68-1.29.75.1 1.31.74 1.31 1.49 0 .07 0 .13-.02.19-.65 4.93-.99 9.97-.99 14.97v.12c0 .83-.67 1.5-1.5 1.5Zm212.99-15.63c-.74 0-1.38-.55-1.49-1.29-.72-4.97-1.8-9.93-3.22-14.74-.24-.79.21-1.63 1.01-1.86.77-.24 1.63.24 1.86 1.01 1.47 4.95 2.58 10.05 3.32 15.16.01.08.02.15.02.23 0 .73-.56 1.37-1.29 1.47-.07.01-.14.02-.21.02Zm-208.93-14.66h-.01c-.13 0-.27-.02-.39-.06-.39-.1-.71-.35-.91-.7s-.25-.75-.14-1.14c1.37-5 3.11-9.93 5.15-14.64.32-.74 1.23-1.1 1.97-.78.56.24.91.78.91 1.39 0 .2-.05.4-.13.58-1.98 4.58-3.67 9.37-5.01 14.25-.18.65-.77 1.1-1.44 1.1Zm200.27-14.63c-.58 0-1.12-.34-1.36-.87-2.1-4.56-4.55-9.01-7.27-13.22-.45-.7-.25-1.63.44-2.08.68-.43 1.64-.22 2.08.45 2.81 4.34 5.32 8.92 7.47 13.59.09.2.14.41.14.62a1.502 1.502 0 0 1-1.5 1.51Zm-188.11-13.38c-.27 0-.55-.08-.78-.22a1.5 1.5 0 0 1-.67-.94c-.1-.39-.03-.79.18-1.13 2.74-4.41 5.82-8.63 9.16-12.55.51-.6 1.51-.68 2.11-.17.34.29.53.7.53 1.13 0 .36-.12.71-.36.99-3.24 3.8-6.23 7.89-8.89 12.18-.27.45-.75.71-1.28.71Zm171.53-12.26c-.43 0-.85-.19-1.13-.51-3.3-3.79-6.9-7.38-10.7-10.66-.62-.54-.69-1.49-.15-2.12.52-.6 1.51-.67 2.11-.15 3.9 3.37 7.6 7.05 11 10.96.24.27.37.62.37.98 0 .43-.19.85-.51 1.13-.28.24-.63.37-.99.37Zm-151.7-10.95c-.44 0-.85-.19-1.14-.52-.26-.3-.39-.69-.36-1.09.03-.4.22-.77.52-1.03 3.91-3.35 8.12-6.45 12.52-9.19.69-.43 1.65-.2 2.07.48.14.23.22.5.23.77 0 .53-.26 1.02-.71 1.3a97.29 97.29 0 0 0-12.15 8.92c-.27.23-.62.36-.98.36Zm128.58-9.02c-.28 0-.56-.08-.81-.23-4.23-2.72-8.7-5.15-13.26-7.23a1.497 1.497 0 0 1-.74-1.99c.33-.73 1.25-1.08 1.98-.74 4.7 2.14 9.29 4.64 13.64 7.43.44.28.69.75.69 1.26 0 .29-.08.57-.23.81-.28.43-.75.69-1.27.69Zm-102.69-7.15a1.497 1.497 0 0 1-.6-2.87c4.67-2.03 9.59-3.78 14.62-5.19.78-.22 1.63.26 1.85 1.04.04.13.06.27.05.41a1.5 1.5 0 0 1-1.09 1.44c-4.91 1.38-9.7 3.08-14.23 5.05h-.01c-.19.08-.39.12-.59.12Zm74.88-5.5c-.14 0-.28-.02-.42-.06-4.81-1.4-9.77-2.47-14.76-3.17-.39-.06-.75-.26-.99-.58-.24-.32-.34-.72-.28-1.11.11-.81.88-1.4 1.69-1.28 5.11.72 10.22 1.81 15.18 3.26a1.503 1.503 0 0 1 1.02 1.86c-.19.63-.78 1.08-1.44 1.08Zm-45.49-2.82c-.74 0-1.37-.53-1.48-1.27-.12-.82.44-1.58 1.26-1.71 4.97-.75 10.16-1.24 15.41-1.46.83-.03 1.52.61 1.56 1.44v.08c-.01.8-.64 1.45-1.44 1.48-5.15.21-10.22.69-15.08 1.43h-.23Z" fill="#494949"/></svg>