<svg xmlns="http://www.w3.org/2000/svg" width="90" viewBox="0 0 600 500" style="height:auto!important"><circle cx="274" cy="242.65" r="212.81" fill="#fff"/><path d="M520 242.65c0 14.22-13.15 27.11-15.52 40.65-2.44 13.92 5.47 30.52.74 43.51-4.81 13.22-21.58 20.84-28.54 32.85-7.02 12.13-5.28 30.45-14.24 41.12-8.99 10.7-27.34 12.15-38.04 21.13s-15.26 26.8-27.39 33.81c-12.02 6.95-29.75 2.06-42.97 6.87s-23.41 19.91-37.33 22.35-28.5-8.3-42.72-8.3-29.18 10.67-42.72 8.3c-13.92-2.44-24.35-17.62-37.33-22.35-13.22-4.81-30.95.08-42.97-6.87-12.13-7.02-16.72-24.85-27.39-33.81s-29.05-10.43-38.04-21.13-7.22-28.99-14.24-41.12c-6.95-12.02-23.72-19.63-28.54-32.85-4.73-12.99 3.18-29.58.74-43.51-2.37-13.54-15.52-26.43-15.52-40.65S41.13 215.54 43.5 202c2.44-13.92-5.47-30.52-.74-43.51 4.81-13.22 21.58-20.84 28.54-32.85 7.02-12.13 5.28-30.45 14.24-41.12 8.99-10.7 27.34-12.15 38.04-21.13 10.67-8.96 15.26-26.8 27.39-33.81 12.02-6.95 29.75-2.06 42.97-6.87C206.93 17.98 217.35 2.8 231.27.36c13.54-2.37 28.5 8.3 42.72 8.3S303.18-2.03 316.72.34c13.92 2.44 24.35 17.62 37.33 22.35 13.22 4.81 30.95-.08 42.97 6.87 12.13 7.02 16.72 24.85 27.39 33.81 10.7 8.99 29.05 10.43 38.04 21.13s7.22 28.99 14.24 41.12c6.95 12.02 23.72 19.63 28.54 32.85 4.73 12.99-3.18 29.58-.74 43.51s15.52 26.43 15.52 40.65Z" fill="#494949"/><circle cx="274" cy="242.65" r="212.81" fill="#fff"/><circle cx="274" cy="242.65" r="206.33" fill="#fff"/><path d="M463.67 242.65c0 104.75-84.92 189.67-189.67 189.67-251.59-9.99-251.52-369.38 0-379.33 104.75 0 189.67 84.92 189.67 189.67h0Z" fill="none" stroke="#494949" stroke-dasharray="0 0 0 0 0 0 14.9 0 0 0 0 14.9" stroke-linecap="round" stroke-linejoin="round" stroke-width="3"/><path d="M541.22 340.31H6.78c-5.96 0-9.01-10.95-4.89-17.55l18.12-29.02c4.07-6.52 4.05-16.81-.05-23.28L2.09 242.25c-4.17-6.58-1.13-17.61 4.86-17.61h534.27c5.97 0 9.02 10.99 4.87 17.58l-18 28.62c-4.09 6.5-4.09 16.78 0 23.28l18 28.62c4.14 6.59 1.1 17.58-4.87 17.58Z" fill="#94deff"/><path d="M.06 331.18h547.88c.13-1.51.03-3.07-.3-4.57H.36c-.33 1.5-.43 3.06-.3 4.57Zm.1-95.89c.02 1.55.28 3.11.79 4.57H547.2c.51-1.46.77-3.02.79-4.57H.16Zm150.19 62.66v-30.18c0-9.18 4.59-14.43 13.45-14.43s13.45 5.25 13.45 14.43v4.92h-8.53v-5.49c0-4.1-1.8-5.66-4.67-5.66s-4.67 1.56-4.67 5.66v31.41c0 4.1 1.8 5.58 4.67 5.58s4.67-1.48 4.67-5.58v-11.23h-4.51v-8.2h13.04v18.78c0 9.18-4.59 14.43-13.45 14.43s-13.45-5.25-13.45-14.43Zm41.32-43.79h12.22l9.35 57.4h-9.02l-1.64-11.4v.16h-10.25l-1.64 11.23h-8.36l9.35-57.4Zm9.84 38.38-4.02-28.37h-.16l-3.94 28.37h8.12Zm17.72-38.38h13.37c9.35 0 13.37 4.35 13.37 13.2v3.53c0 5.9-1.89 9.68-5.9 11.32v.16c4.51 1.39 5.99 5.66 5.99 12.14v10.09c0 2.79.08 4.84.98 6.97h-9.18c-.49-1.48-.82-2.38-.82-7.05v-10.5c0-5.33-1.56-7.05-5.66-7.05h-3.12v24.6h-9.02v-57.4Zm12.3 24.6c3.36 0 5.41-1.48 5.41-6.07v-4.43c0-4.1-1.39-5.9-4.59-5.9h-4.1v16.4h3.28Zm29.35-24.6h12.22l9.35 57.4h-9.02l-1.64-11.4v.16h-10.25l-1.64 11.23h-8.36l9.35-57.4Zm9.84 38.38-4.02-28.37h-.16l-3.94 28.37h8.12Zm17.71-38.38h11.32l8.77 34.36h.16v-34.36h8.04v57.4h-9.27l-10.82-41.9h-.16v41.9h-8.04v-57.4Zm43.71 8.2h-9.43v-8.2h27.88v8.2h-9.43v49.2h-9.02v-49.2Zm24.43-8.2h9.02v57.4h-9.02v-57.4Zm17.39 0h24.6v8.2h-15.58v15.17h12.38v8.2h-12.38v17.63h15.58v8.2h-24.6v-57.4Z" fill="#fff"/><path d="M190.61 203.53c-1.85.7-4.05 1.06-6.42 1.06-9.5 0-14.7-5.63-14.7-15.49v-32.38c0-9.86 5.19-15.49 14.7-15.49s14.7 5.63 14.7 15.49v32.38c0 4.22-.97 7.57-2.73 10.12.7 1.23 1.85 1.41 3.61 1.41h1.5v8.8h-2.55c-3.61 0-6.95-1.32-8.1-5.9Zm-1.41-13.82V156.1c0-4.4-1.94-6.07-5.02-6.07s-5.02 1.67-5.02 6.07v33.61c0 4.4 1.94 6.07 5.02 6.07s5.02-1.67 5.02-6.07Zm15.84-.61v-46.99h9.68v47.69c0 4.4 1.85 5.98 4.93 5.98s4.93-1.58 4.93-5.98v-47.69h9.33v46.99c0 9.86-4.93 15.49-14.43 15.49s-14.43-5.63-14.43-15.49Zm43.03-46.99h13.11l10.03 61.6h-9.68l-1.76-12.23v.18h-11l-1.76 12.06h-8.98l10.03-61.6Zm10.56 41.18-4.31-30.45h-.18l-4.22 30.45h8.71Zm17.25-41.18h9.68v52.8h15.93v8.8h-25.61v-61.6Zm30.27 0h9.68v61.6h-9.68v-61.6Zm24.46 8.8h-10.12v-8.8h29.92v8.8h-10.12v52.8h-9.68v-52.8Zm24.47-8.8h26.4v8.8h-16.72v16.28h13.29v8.8h-13.29v18.92h16.72v8.8h-26.4v-61.6Zm14.08-14.26h10.56l-9.42 10.12H363l6.16-10.12ZM274 73.32l5.82 11.78 13.01 1.89-9.42 9.18 2.22 12.96-11.63-6.12-11.63 6.12 2.22-12.96-9.42-9.18 13.01-1.89L274 73.32zm-42.65 17.3 3.72 7.52 8.3 1.21-6.01 5.86 1.42 8.26-7.43-3.9-7.42 3.9 1.42-8.26-6.01-5.86 8.3-1.21 3.71-7.52zm85.3 1.2 3.71 7.53 8.3 1.2-6.01 5.86 1.42 8.27-7.42-3.91-7.43 3.91 1.42-8.27-6.01-5.86 8.3-1.2 3.72-7.53zm-41.91 282.69 5.76 11.68 12.88 1.87-9.32 9.09 2.2 12.83-11.52-6.06-11.53 6.06 2.2-12.83-9.32-9.09 12.89-1.87 5.76-11.68zm-42.64-3.56 3.71 7.52 8.3 1.21-6.01 5.86 1.42 8.26-7.42-3.9-7.43 3.9 1.42-8.26-6.01-5.86 8.3-1.21 3.72-7.52zm84.87.11 3.68 7.45 8.22 1.2-5.95 5.79 1.4 8.19-7.35-3.86-7.35 3.86 1.4-8.19-5.95-5.79 8.22-1.2 3.68-7.45z" fill="#494949"/></svg>